<svg width="19" height="19" viewBox="0 0 19 19" fill="none" xmlns="http://www.w3.org/2000/svg">
<path d="M12.9314 1.5835C15.6261 1.5835 17.4167 3.50695 17.4167 6.26709V12.7329C17.4167 15.4932 15.6257 17.4165 12.9304 17.4165H6.06812C3.37381 17.4163 1.58374 15.4931 1.58374 12.7329V6.26709C1.58374 3.50954 3.3786 1.58369 6.06812 1.5835H12.9314ZM6.06812 2.771C4.05383 2.77119 2.77124 4.14745 2.77124 6.26709V12.7329C2.77124 14.8555 4.04942 16.2288 6.06812 16.229H12.9304C14.9503 16.229 16.2292 14.8555 16.2292 12.7329V6.26709C16.2292 4.1446 14.9505 2.771 12.9314 2.771H6.06812ZM10.9763 7.17627C11.2082 6.9444 11.5843 6.9444 11.8162 7.17627C12.0269 7.38697 12.046 7.71631 11.8738 7.94873L11.8162 8.01611L10.3376 9.49268L11.8171 10.9722C12.049 11.2041 12.049 11.5802 11.8171 11.812C11.6064 12.0224 11.277 12.0417 11.0447 11.8696L10.9773 11.812L9.49878 10.3325L8.02222 11.8091C7.79035 12.0409 7.41522 12.0409 7.18335 11.8091C6.97256 11.5983 6.95328 11.2691 7.12573 11.0366L7.18335 10.9702L8.65894 9.49268L7.1814 8.01416C6.94955 7.78226 6.9495 7.40617 7.1814 7.17432C7.39213 6.96387 7.72154 6.94452 7.95386 7.1167L8.02026 7.17432L9.49878 8.65283L10.9763 7.17627Z" fill="#200E32"/>
</svg>
