<svg width="24" height="24" viewBox="0 0 24 24" fill="none" xmlns="http://www.w3.org/2000/svg">
<path d="M18.9785 8.71973C19.3475 8.75027 19.6307 9.05702 19.6504 9.42578L19.6406 9.63184L19.3262 13.4834L18.9961 17.2412C18.9263 17.9915 18.8635 18.6249 18.8096 19.123C18.622 20.8588 17.4955 21.932 15.7969 21.9639C13.1497 22.0128 10.6048 22.0124 8.13379 21.959C6.4841 21.9244 5.37363 20.8393 5.18945 19.1299L5.0625 17.8701L4.83984 15.4268L4.6123 12.7461L4.35156 9.52832C4.31919 9.11542 4.61982 8.75292 5.02246 8.71973C5.39134 8.68949 5.71799 8.94592 5.79492 9.30664L5.8252 9.60156L6.06934 12.6191L6.33691 15.7461C6.45668 17.0997 6.56044 18.1953 6.64355 18.9648C6.74849 19.939 7.26138 20.44 8.16406 20.459C10.6158 20.512 13.1419 20.5124 15.7705 20.4639C16.7279 20.4458 17.2493 19.9495 17.3564 18.957L17.4824 17.7041C17.5195 17.3183 17.5597 16.8924 17.6016 16.4297L17.8682 13.3535L18.1904 9.40723C18.2203 9.02888 18.5193 8.73885 18.8789 8.71875L18.9785 8.71973ZM14.0635 2C14.907 2 15.6527 2.54651 15.9395 3.39062L15.9873 3.55176L16.2246 4.76758C16.299 5.14833 16.6023 5.43272 16.9697 5.48145L17.082 5.48926H20.2686C20.6725 5.48926 21 5.82503 21 6.23926C21 6.61882 20.725 6.93263 20.3682 6.98242L20.2686 6.98926H3.73145C3.32754 6.98926 3.00005 6.65344 3 6.23926C3 5.85966 3.275 5.5459 3.63184 5.49609L3.73145 5.48926H6.91797C7.29651 5.48915 7.62755 5.23881 7.74609 4.87891L7.77539 4.76855L8.02344 3.50488C8.24166 2.66879 8.94967 2.07301 9.7793 2.00586L9.93555 2H14.0635ZM9.93555 3.5C9.73048 3.50015 9.54838 3.62361 9.47266 3.77832L9.44727 3.8457L9.20996 5.0625C9.181 5.2108 9.13758 5.35308 9.08398 5.48926H14.916C14.8826 5.40437 14.8522 5.31731 14.8281 5.22754L14.79 5.0625L14.5635 3.89258C14.5105 3.6899 14.3473 3.54184 14.1504 3.50781L14.0635 3.5H9.93555Z" fill="#200E32"/>
</svg>
