<svg width="18" height="18" viewBox="0 0 18 18" fill="none" xmlns="http://www.w3.org/2000/svg">
<path d="M5.61694 5.53363C5.92754 5.53371 6.17944 5.78552 6.17944 6.09613C6.17938 6.38084 5.96763 6.61651 5.69312 6.65375L5.61694 6.65863H4.90991C3.74207 6.65883 2.78719 7.57224 2.72046 8.72308L2.71655 8.85101V12.5151C2.71655 13.6873 3.63341 14.6454 4.78882 14.7123L4.91772 14.7162H13.2732C14.4415 14.716 15.3959 13.8034 15.4626 12.6518L15.4666 12.5229V8.8598C15.4666 7.68699 14.5507 6.72945 13.3953 6.66254L13.2664 6.65863H12.5662C12.2556 6.65855 12.0037 6.40668 12.0037 6.09613C12.0037 5.81136 12.2154 5.57576 12.49 5.53851L12.5662 5.53363H13.2664C15.0508 5.53379 16.5059 6.9389 16.5876 8.70355L16.5916 8.8598V12.5229C16.5915 14.3035 15.1898 15.7566 13.4294 15.8383L13.2732 15.8412H4.91772C3.1335 15.8412 1.67747 14.4363 1.59546 12.6723L1.59155 12.5151V8.85101C1.59181 7.07281 2.99203 5.6214 4.74976 5.53754L4.90991 5.53363H5.61694ZM9.09155 1.98383C9.37632 1.98383 9.61192 2.1956 9.64917 2.47015L9.65405 2.54633V10.2143L10.8806 8.9848C11.0798 8.78482 11.3915 8.76551 11.6121 8.92816L11.6755 8.98285C11.8756 9.18214 11.8941 9.49473 11.7312 9.71527L11.6775 9.77777L9.48999 11.9741C9.45688 12.0073 9.41821 12.0339 9.37769 12.058C9.35678 12.0705 9.33623 12.0827 9.31421 12.0922C9.30654 12.0955 9.29861 12.098 9.29077 12.101C9.26504 12.1108 9.2393 12.1196 9.21265 12.1254C9.20174 12.1278 9.19057 12.1286 9.17944 12.1303C9.15442 12.1343 9.12952 12.1366 9.10425 12.1371C9.10006 12.1372 9.09576 12.1391 9.09155 12.1391C9.08532 12.1391 9.07918 12.1373 9.073 12.1371C9.05103 12.1364 9.02935 12.1346 9.00757 12.1313C8.99097 12.1288 8.97483 12.1254 8.95874 12.1215C8.94289 12.1177 8.9274 12.1131 8.91187 12.1078C8.8983 12.1033 8.8849 12.0988 8.87183 12.0932C8.85325 12.0853 8.83495 12.0768 8.81714 12.0668C8.80369 12.0593 8.79081 12.051 8.77808 12.0424C8.77106 12.0377 8.76343 12.0338 8.75659 12.0287L8.73511 12.0102C8.72653 12.0031 8.71786 11.9963 8.70972 11.9887L8.69312 11.9741L6.50659 9.77777C6.28743 9.5577 6.28761 9.20208 6.50757 8.98285C6.70767 8.78357 7.02012 8.7663 7.23999 8.93011L7.30347 8.9848L8.52905 10.2143V2.54633C8.52905 2.23572 8.78096 1.98391 9.09155 1.98383Z" fill="#200E32"/>
</svg>
