<svg width="20" height="18" viewBox="0 0 20 18" fill="none" xmlns="http://www.w3.org/2000/svg">
<path d="M16.6635 0.75C17.6459 0.75 18.4349 1.53274 18.4349 2.49023V3.7666C18.4348 4.23142 18.246 4.67649 17.9105 5.00195L12.1097 10.6631V14.9482C12.1097 15.1433 12.0072 15.3232 11.8412 15.4287L11.767 15.4697L7.9574 17.1943C7.56075 17.3739 7.10492 17.0956 7.10486 16.6738V10.6494L1.76111 4.97949C1.49072 4.69318 1.32715 4.32642 1.29431 3.94043L1.28845 3.79492V2.49023C1.28845 1.53284 2.07661 0.750168 3.05896 0.75H16.6635ZM3.05896 1.90137C2.74577 1.90154 2.48474 2.16069 2.48474 2.49023V3.79492C2.48474 3.94892 2.54338 4.09551 2.64685 4.20508L8.14587 10.041C8.24558 10.1469 8.30115 10.2849 8.30115 10.4277V15.7656L10.9135 14.583V10.4277C10.9135 10.3067 10.9534 10.1889 11.0258 10.0918L11.0863 10.0234L17.0599 4.19336C17.1729 4.08372 17.2385 3.92973 17.2386 3.7666V2.49023C17.2386 2.16058 16.9768 1.90137 16.6635 1.90137H3.05896Z" fill="#200E32"/>
</svg>
