<svg width="20" height="20" viewBox="0 0 20 20" fill="none" xmlns="http://www.w3.org/2000/svg">
<path d="M15.1979 11.7269C16.9272 11.727 18.3326 13.1147 18.3327 14.8216C18.3327 16.5277 16.9273 17.9163 15.1979 17.9163C13.4686 17.9163 12.0622 16.5277 12.0622 14.8216C12.0623 13.1147 13.4686 11.7269 15.1979 11.7269ZM15.1979 13.179C14.2794 13.179 13.533 13.915 13.5329 14.8216C13.5329 15.7274 14.2793 16.4652 15.1979 16.4652C16.1165 16.4651 16.863 15.7274 16.863 14.8216C16.8628 13.915 16.1164 13.1791 15.1979 13.179ZM8.43134 14.096C8.83705 14.0962 9.16669 14.4211 9.16669 14.8216C9.16666 15.2221 8.83703 15.547 8.43134 15.5472H2.40302C1.99715 15.5472 1.66769 15.2222 1.66766 14.8216C1.66766 14.421 1.99714 14.096 2.40302 14.096H8.43134ZM4.80145 2.08334C6.53081 2.08334 7.93715 3.47199 7.93719 5.17806C7.93719 6.88417 6.53083 8.27279 4.80145 8.27279C3.07327 8.27254 1.66669 6.88402 1.66669 5.17806C1.66673 3.47214 3.07329 2.08359 4.80145 2.08334ZM4.80145 3.53451C3.88406 3.53476 3.13743 4.27246 3.13739 5.17806C3.13739 6.0837 3.88404 6.82136 4.80145 6.82162C5.72006 6.82162 6.46649 6.08386 6.46649 5.17806C6.46645 4.2723 5.72004 3.53451 4.80145 3.53451ZM17.5983 4.45248C18.004 4.45261 18.3335 4.77763 18.3337 5.17806C18.3337 5.57862 18.0041 5.90351 17.5983 5.90365H11.569C11.1632 5.90365 10.8337 5.5787 10.8337 5.17806C10.8338 4.77755 11.1632 4.45248 11.569 4.45248H17.5983Z" fill="#200E32"/>
</svg>
