<svg width="20" height="18" viewBox="0 0 20 18" fill="none" xmlns="http://www.w3.org/2000/svg">
<path fill-rule="evenodd" clip-rule="evenodd" d="M18.4169 0.582879C18.7099 0.875879 18.7099 1.35088 18.4169 1.64388L2.64294 17.4169C2.49694 17.5639 2.30494 17.6369 2.11294 17.6369C1.92094 17.6369 1.72894 17.5639 1.58294 17.4169C1.28994 17.1239 1.28994 16.6499 1.58294 16.3569L3.55489 14.3861C2.14107 13.093 0.941759 11.3498 0.0610422 9.29708C-0.0209578 9.10708 -0.0209578 8.89308 0.0610422 8.70408C1.08204 6.34008 2.52004 4.38308 4.22004 3.04608C7.51287 0.440128 11.8418 0.301803 15.2682 2.67141L17.3569 0.582879C17.6499 0.289879 18.1239 0.289879 18.4169 0.582879ZM18.0467 5.40388C18.7707 6.36488 19.4067 7.47588 19.9377 8.70188C20.0207 8.89188 20.0207 9.10788 19.9377 9.29688C17.8417 14.1539 14.1267 17.0529 9.99974 17.0529C9.06274 17.0529 8.13074 16.9009 7.23074 16.6019C6.83774 16.4709 6.62474 16.0459 6.75574 15.6529C6.88674 15.2589 7.30974 15.0499 7.70474 15.1779C8.45174 15.4269 9.22374 15.5529 9.99974 15.5529C13.4277 15.5529 16.5607 13.1109 18.4297 8.99988C17.9737 8.00088 17.4427 7.09588 16.8487 6.30588C16.5997 5.97488 16.6657 5.50388 16.9967 5.25488C17.3267 5.00588 17.7977 5.07388 18.0467 5.40388ZM5.14904 4.22408C3.71304 5.35408 2.48004 7.00008 1.57004 9.00208C2.36349 10.7545 3.40587 12.2324 4.6166 13.3238L6.7544 11.1862C6.31947 10.5463 6.08544 9.79182 6.08544 9.00168C6.08544 6.84168 7.84144 5.08468 9.99944 5.08468C10.7824 5.08468 11.5483 5.32309 12.186 5.75398L14.1875 3.75258C11.3347 1.90835 7.86253 2.07659 5.14904 4.22408ZM13.237 8.82468C13.645 8.89768 13.916 9.28768 13.843 9.69568C13.556 11.2887 12.294 12.5527 10.702 12.8427C10.657 12.8507 10.611 12.8547 10.567 12.8547C10.212 12.8547 9.89604 12.6007 9.83004 12.2387C9.75604 11.8317 10.026 11.4407 10.434 11.3667C11.414 11.1887 12.19 10.4107 12.366 9.42968C12.44 9.02268 12.83 8.75468 13.237 8.82468ZM9.99944 6.58468C8.66844 6.58468 7.58544 7.66868 7.58544 9.00168C7.58544 9.38706 7.67617 9.75907 7.84719 10.0931L11.0928 6.84712C10.7587 6.67684 10.3828 6.58468 9.99944 6.58468Z" fill="black"/>
</svg>
