<svg width="20" height="20" viewBox="0 0 20 20" fill="none" xmlns="http://www.w3.org/2000/svg">
<circle cx="10" cy="10" r="10" fill="white"/>
<path d="M12.651 9.44971C13.0652 9.44971 13.401 9.78549 13.401 10.1997C13.401 10.5794 13.1188 10.8932 12.7528 10.9429L12.651 10.9497H7.75C7.33579 10.9497 7 10.6139 7 10.1997C7 9.82001 7.28215 9.50622 7.64823 9.45655L7.75 9.44971H12.651Z" fill="#200E32"/>
<path d="M10.2003 7C10.58 7 10.8938 7.28215 10.9435 7.64823L10.9503 7.75V12.651C10.9503 13.0652 10.6145 13.401 10.2003 13.401C9.82062 13.401 9.50683 13.1188 9.45716 12.7528L9.45032 12.651V7.75C9.45032 7.33579 9.7861 7 10.2003 7Z" fill="#200E32"/>
</svg>
