<svg width="24" height="24" viewBox="0 0 24 24" fill="none" xmlns="http://www.w3.org/2000/svg">
<path d="M16.3584 2C19.7497 2 22 4.41704 22 7.89355V16.1064C22 19.583 19.7497 22 16.3584 22H7.6416C4.25032 22 2 19.583 2 16.1064V7.89355C2 4.42029 4.25627 2 7.6416 2H16.3584ZM7.6416 3.39551C5.04963 3.39551 3.39551 5.16988 3.39551 7.89355V16.1064C3.39551 18.8337 5.04412 20.6045 7.6416 20.6045H16.3584C18.9559 20.6045 20.6045 18.8337 20.6045 16.1064V7.89355C20.6045 5.16626 18.9559 3.39551 16.3584 3.39551H7.6416ZM7.69434 9.62988C8.04752 9.62988 8.33951 9.89192 8.38574 10.2324L8.3916 10.3271V16.709C8.39144 17.0942 8.07955 17.4062 7.69434 17.4062C7.34125 17.4062 7.04927 17.1441 7.00293 16.8037L6.99707 16.709V10.3271C6.99708 9.94185 7.30904 9.62989 7.69434 9.62988ZM12.0352 6.57617C12.3883 6.57617 12.6803 6.83829 12.7266 7.17871L12.7334 7.27344V16.709C12.7332 17.0942 12.4204 17.4062 12.0352 17.4062C11.6822 17.4061 11.3901 17.144 11.3438 16.8037L11.3379 16.709V7.27344C11.338 6.88829 11.65 6.57632 12.0352 6.57617ZM16.3057 13.002C16.6588 13.002 16.9508 13.2641 16.9971 13.6045L17.0029 13.6992V16.709C17.0028 17.0942 16.6909 17.4062 16.3057 17.4062C15.9526 17.4062 15.6606 17.1441 15.6143 16.8037L15.6084 16.709V13.6992C15.6085 13.314 15.9204 13.002 16.3057 13.002Z" fill="white"/>
</svg>
