<svg width="24" height="24" viewBox="0 0 24 24" fill="none" xmlns="http://www.w3.org/2000/svg">
<path d="M16.3347 2.0002C19.7384 2.0002 22.0007 4.42972 22.0007 7.91621V16.0842C22.0007 19.5708 19.7383 22.0002 16.3337 22.0002H7.66571C4.26141 22.0002 2.00067 19.5712 2.00067 16.0842V7.91621C2.00067 4.43281 4.26814 2.0002 7.66571 2.0002H16.3347ZM7.66571 3.5002C5.12105 3.5002 3.50067 5.23859 3.50067 7.91621V16.0842C3.50067 18.7659 5.11485 20.5002 7.66571 20.5002H16.3337C18.8851 20.5002 20.5007 18.7653 20.5007 16.0842V7.91621C20.5007 5.23518 18.8852 3.5002 16.3347 3.5002H7.66571ZM7.52118 10.802C8.18193 10.8022 8.71834 11.3404 8.71844 12.0002C8.71844 12.6601 8.18199 13.1972 7.52118 13.1975C6.86018 13.1975 6.32294 12.6602 6.32294 12.0002C6.32305 11.3403 6.86025 10.802 7.52118 10.802ZM11.9997 10.802C12.6606 10.802 13.1978 11.3403 13.1979 12.0002C13.1979 12.6602 12.6607 13.1975 11.9997 13.1975C11.3389 13.1972 10.8024 12.66 10.8024 12.0002C10.8025 11.3404 11.339 10.8022 11.9997 10.802ZM16.4792 10.802C17.1401 10.802 17.6773 11.3403 17.6774 12.0002C17.6774 12.6602 17.1402 13.1975 16.4792 13.1975C15.8182 13.1975 15.2809 12.6602 15.2809 12.0002C15.2811 11.3403 15.8183 10.802 16.4792 10.802Z" fill="#200E32"/>
</svg>
