<svg width="34" height="34" viewBox="0 0 34 34" fill="none" xmlns="http://www.w3.org/2000/svg">
<path fill-rule="evenodd" clip-rule="evenodd" d="M11.5284 31.1666C10.9447 31.1666 10.3908 31.1213 9.86949 31.0321L9.56066 30.974C6.20174 30.2756 4.24957 27.7029 4.24957 23.7872V10.2127C4.24957 9.73956 4.27791 9.28623 4.33457 8.85273C4.82899 5.04898 7.44274 2.83331 11.5284 2.83331H22.4722C26.9998 2.83331 29.7071 5.55331 29.7496 10.1036V10.2127V23.7872C29.7496 28.4013 27.0352 31.1666 22.4722 31.1666H11.5284ZM11.5284 4.8974C8.04907 4.8974 6.28532 6.68665 6.28532 10.2127V23.7872C6.28532 27.3133 8.04907 29.1026 11.5284 29.1026H22.4594C25.9373 29.1026 27.6897 27.3133 27.6897 23.7872V10.2127C27.6897 6.68665 25.9373 4.8974 22.4594 4.8974H11.5284ZM23.0997 22.9981C23.0997 22.4315 22.6478 21.9725 22.0897 21.9725H11.8741C11.3159 21.9725 10.8626 22.4315 10.8626 22.9981C10.8626 23.5648 11.3159 24.0238 11.8741 24.0238H22.0897C22.6478 24.0238 23.0997 23.5648 23.0997 22.9981ZM22.0897 15.9672C22.4792 15.9247 22.8603 16.1117 23.0686 16.4475C23.2768 16.7861 23.2768 17.2139 23.0686 17.5525C22.8603 17.8882 22.4792 18.0752 22.0897 18.0327H11.8741C11.3556 17.9732 10.9632 17.5298 10.9632 17C10.9632 16.4701 11.3556 16.0253 11.8741 15.9672H22.0897ZM16.6837 11.0089C16.6837 10.4791 16.2912 10.0342 15.7727 9.97615H11.8868C11.3669 10.0342 10.9745 10.4791 10.9745 11.0089C10.9745 11.5373 11.3669 11.9821 11.8868 12.0402H15.7727C16.2912 11.9821 16.6837 11.5373 16.6837 11.0089Z" fill="white"/>
</svg>
