<svg width="24" height="24" viewBox="0 0 24 24" fill="none" xmlns="http://www.w3.org/2000/svg">
<path d="M16.3584 2C19.7497 2 22 4.41704 22 7.89355V16.1064C22 19.583 19.7497 22 16.3584 22H7.6416C4.25032 22 2 19.583 2 16.1064V7.89355C2 4.42029 4.25627 2 7.6416 2H16.3584ZM7.6416 3.39551C5.04963 3.39551 3.39551 5.16988 3.39551 7.89355V16.1064C3.39551 18.8337 5.04412 20.6045 7.6416 20.6045H16.3584C18.9559 20.6045 20.6045 18.8337 20.6045 16.1064V7.89355C20.6045 5.16626 18.9559 3.39551 16.3584 3.39551H7.6416ZM12 7.88574C12.3532 7.88574 12.6452 8.14872 12.6914 8.48926L12.6973 8.58398V11.2939H15.4111C15.7963 11.2941 16.1084 11.606 16.1084 11.9912C16.1084 12.3443 15.8462 12.6363 15.5059 12.6826L15.4111 12.6885H12.6973V15.3984C12.6973 15.7838 12.3853 16.0967 12 16.0967C11.6468 16.0967 11.3548 15.8337 11.3086 15.4932L11.3027 15.3984V12.6885H8.58887C8.2037 12.6883 7.89164 12.3764 7.8916 11.9912C7.8916 11.6381 8.15376 11.3461 8.49414 11.2998L8.58887 11.2939H11.3027V8.58398C11.3027 8.19867 11.6147 7.88574 12 7.88574Z" fill="#200E32"/>
</svg>
