<svg width="20" height="18" viewBox="0 0 20 18" fill="none" xmlns="http://www.w3.org/2000/svg">
<path fill-rule="evenodd" clip-rule="evenodd" d="M10.0025 0.94751C14.1385 0.95051 17.8525 3.84951 19.9385 8.70351C20.0205 8.89251 20.0205 9.10651 19.9385 9.29551C17.8535 14.1505 14.1385 17.0495 10.0025 17.0525H9.99651C5.86051 17.0495 2.14651 14.1505 0.0605059 9.29551C-0.0204941 9.10651 -0.0204941 8.89251 0.0605059 8.70351C2.14651 3.84951 5.86151 0.95051 9.99651 0.94751H10.0025ZM9.99951 2.44751C6.56351 2.44851 3.42951 4.89151 1.56951 8.99951C3.42951 13.1085 6.56251 15.5515 9.99951 15.5525C13.4365 15.5515 16.5695 13.1085 18.4295 8.99951C16.5695 4.89151 13.4365 2.44851 9.99951 2.44751ZM9.99921 5.08831C12.1562 5.08831 13.9112 6.84331 13.9112 9.00031C13.9112 11.1563 12.1562 12.9103 9.99921 12.9103C7.84221 12.9103 6.08821 11.1563 6.08821 9.00031C6.08821 6.84331 7.84221 5.08831 9.99921 5.08831ZM9.99921 6.58831C8.66921 6.58831 7.58821 7.67031 7.58821 9.00031C7.58821 10.3293 8.66921 11.4103 9.99921 11.4103C11.3292 11.4103 12.4112 10.3293 12.4112 9.00031C12.4112 7.67031 11.3292 6.58831 9.99921 6.58831Z" fill="black"/>
</svg>
